# xmcd
#
# Track frame offsets: 
#        150
#        20085
#        38858
#        59813
#        84488
#        102209
#        125104
#        146021
#        165658
#        187120
#        208659
#        229358
#        251266
#
# Disc length: 3623 seconds
#
# Revision: 0
# Processed by: cddbd v1.5.2PL0 Copyright (c) Steve Scherf et al.
# Submitted via: ExactAudioCopy v1.0b2
#
DISCID=c20e250d
DTITLE=依侗 - 世纪绝响 - 春之声
DYEAR=2007
DGENRE=流行乐
TTITLE0=我等的人会是谁
TTITLE1=暖暖
TTITLE2=我不后悔
TTITLE3=飘雪
TTITLE4=隐形的翅膀
TTITLE5=菊花台
TTITLE6=秋天不回来
TTITLE7=手放开
TTITLE8=爱如空气
TTITLE9=寻找
TTITLE10=不想让你哭
TTITLE11=退后
TTITLE12=我比从前更寂寞
EXTD=
EXTT0=
EXTT1=
EXTT2=
EXTT3=
EXTT4=
EXTT5=
EXTT6=
EXTT7=
EXTT8=
EXTT9=
EXTT10=
EXTT11=
EXTT12=
PLAYORDER=
